<svg xmlns="http://www.w3.org/2000/svg" version="1.1" width="512px" height="512px"
  style="shape-rendering:geometricPrecision; text-rendering:geometricPrecision; image-rendering:optimizeQuality; fill-rule:evenodd; clip-rule:evenodd"
  xmlns:xlink="http://www.w3.org/1999/xlink">
  <g>
    <path style="opacity:1" fill="#0052c1"
      d="M 255.5,0.5 C 255.5,45.5 255.5,90.5 255.5,135.5C 170.167,135.5 84.8333,135.5 -0.5,135.5C -0.5,102.167 -0.5,68.8333 -0.5,35.5C 4.65165,17.5157 16.3183,6.01571 34.5,1C 108.166,0.500003 181.833,0.333337 255.5,0.5 Z" />
  </g>
  <g>
    <path style="opacity:1" fill="#003481"
      d="M 255.5,0.5 C 329.167,0.333337 402.834,0.500003 476.5,1C 494.682,6.01571 506.348,17.5157 511.5,35.5C 511.5,68.8333 511.5,102.167 511.5,135.5C 426.167,135.5 340.833,135.5 255.5,135.5C 255.5,90.5 255.5,45.5 255.5,0.5 Z" />
  </g>
  <g>
    <path style="opacity:1" fill="#0051c1"
      d="M 341.5,60.5 C 374.168,60.3334 406.835,60.5 439.5,61C 450.828,66.3225 453.328,74.4891 447,85.5C 444.531,87.6515 441.698,89.1515 438.5,90C 406.167,90.6667 373.833,90.6667 341.5,90C 330.217,84.5867 327.717,76.4201 334,65.5C 336.479,63.6859 338.979,62.0192 341.5,60.5 Z" />
  </g>
  <g>
    <path style="opacity:1" fill="#36d445"
      d="M 71.5,60.5 C 84.9829,59.8153 91.1495,66.1486 90,79.5C 86.751,88.0729 80.5844,91.5729 71.5,90C 61.5855,85.9492 58.4189,78.7825 62,68.5C 64.3616,64.7553 67.5283,62.0886 71.5,60.5 Z" />
  </g>
  <g>
    <path style="opacity:1" fill="#f7bc0d"
      d="M 131.5,60.5 C 144.983,59.8153 151.15,66.1486 150,79.5C 145.909,89.4249 138.742,92.5916 128.5,89C 119.131,81.7175 118.131,73.3842 125.5,64C 127.432,62.5415 129.432,61.3748 131.5,60.5 Z" />
  </g>
  <g>
    <path style="opacity:1" fill="#ed3802"
      d="M 191.5,60.5 C 204.18,60.015 210.347,66.015 210,78.5C 205.791,89.4585 198.291,92.6252 187.5,88C 177.216,77.1562 178.549,67.9896 191.5,60.5 Z" />
  </g>
  <g>
    <path style="opacity:1" fill="#e0f3fe"
      d="M -0.5,135.5 C 84.8333,135.5 170.167,135.5 255.5,135.5C 255.5,182.167 255.5,228.833 255.5,275.5C 255.5,276.5 255.5,277.5 255.5,278.5C 234.57,325.203 214.57,372.369 195.5,420C 196.85,430.665 202.85,435.665 213.5,435C 216.621,434.274 219.287,432.774 221.5,430.5C 233.043,405.183 244.376,379.85 255.5,354.5C 255.5,406.5 255.5,458.5 255.5,510.5C 181.833,510.667 108.166,510.5 34.5,510C 16.3096,504.975 4.64294,493.475 -0.5,475.5C -0.5,362.167 -0.5,248.833 -0.5,135.5 Z" />
  </g>
  <g>
    <path style="opacity:1" fill="#b8dff4"
      d="M 255.5,135.5 C 340.833,135.5 426.167,135.5 511.5,135.5C 511.5,248.833 511.5,362.167 511.5,475.5C 506.348,493.484 494.682,504.984 476.5,510C 402.834,510.5 329.167,510.667 255.5,510.5C 255.5,458.5 255.5,406.5 255.5,354.5C 255.557,353.391 255.89,352.391 256.5,351.5C 274.985,308.526 293.485,265.526 312,222.5C 316.522,215.071 316.522,207.737 312,200.5C 303.718,193.617 295.718,193.951 288,201.5C 277.391,226.374 266.558,251.04 255.5,275.5C 255.5,228.833 255.5,182.167 255.5,135.5 Z" />
  </g>
  <g>
    <path style="opacity:1" fill="#ef3902"
      d="M 256.5,351.5 C 255.502,327.339 255.169,303.006 255.5,278.5C 255.5,277.5 255.5,276.5 255.5,275.5C 266.558,251.04 277.391,226.374 288,201.5C 295.718,193.951 303.718,193.617 312,200.5C 316.522,207.737 316.522,215.071 312,222.5C 293.485,265.526 274.985,308.526 256.5,351.5 Z" />
  </g>
  <g>
    <path style="opacity:1" fill="#fe651c"
      d="M 161.5,240.5 C 172.425,239.603 178.758,244.436 180.5,255C 180.135,258.763 178.968,262.263 177,265.5C 156.33,282.007 135.83,298.674 115.5,315.5C 135.83,332.326 156.33,348.993 177,365.5C 182.056,373.093 181.556,380.259 175.5,387C 168.765,391.589 162.098,391.589 155.5,387C 130.789,366.62 105.789,346.62 80.5,327C 73.8419,319.293 73.8419,311.627 80.5,304C 107.242,282.321 134.242,261.154 161.5,240.5 Z" />
  </g>
  <g>
    <path style="opacity:1" fill="#ef3902"
      d="M 342.5,240.5 C 347.182,240.338 351.515,241.505 355.5,244C 380.211,264.38 405.211,284.38 430.5,304C 437.079,311.635 437.079,319.301 430.5,327C 405.211,346.62 380.211,366.62 355.5,387C 344.58,393.283 336.413,390.783 331,379.5C 330.123,374.456 331.123,369.789 334,365.5C 354.67,348.993 375.17,332.326 395.5,315.5C 375.17,298.674 354.67,282.007 334,265.5C 327.62,253.801 330.454,245.468 342.5,240.5 Z" />
  </g>
  <g>
    <path style="opacity:1" fill="#fe651c"
      d="M 255.5,278.5 C 255.169,303.006 255.502,327.339 256.5,351.5C 255.89,352.391 255.557,353.391 255.5,354.5C 244.376,379.85 233.043,405.183 221.5,430.5C 219.287,432.774 216.621,434.274 213.5,435C 202.85,435.665 196.85,430.665 195.5,420C 214.57,372.369 234.57,325.203 255.5,278.5 Z" />
  </g>
</svg>
