<svg xmlns="http://www.w3.org/2000/svg" viewBox="0 0 356 100.01714794132062" height="100.01714794132062" width="356"
  style="width: 356px; height: 100.017px; position: absolute; top: 50%; left: 50%; transform: translate(-50%, -50%) scale(0.448315); z-index: 0; cursor: pointer;">
  <defs>
    <linearGradient id="SvgjsLinearGradient3891">
      <stop stop-color="#b88746" offset="0"></stop>
      <stop stop-color="#fdf5a6" offset="1"></stop>
    </linearGradient>
  </defs>
  <g featurekey="5TMTKC-0"
    transform="matrix(1.1904740279533241,0,0,1.1904740279533241,-9.523607733394561,-9.507080246915823)"
    fill="url(#SvgjsLinearGradiet3891)">
    <g xmlns="http://www.w3.org/2000/svg" transform="translate(0,-952.36218)">
      <path
        style="font-size:medium;font-style:normal;font-variant:normal;font-weight:normal;font-stretch:normal;text-indent:0;text-align:start;text-decoration:none;line-height:normal;letter-spacing:normal;word-spacing:normal;text-transform:none;direction:ltr;block-progression:tb;writing-mode:lr-tb;text-anchor:start;baseline-shift:baseline;opacity:1;color:;fill:url(#SvgjsLinearGradient3891);fill-opacity:1;stroke:none;stroke-width:2;marker:none;visibility:visible;display:inline;overflow:visible;enable-background:accumulate;font-family:Sans;-inkscape-font-specification:Sans"
        d="M 49.84375 8 A 1.0001 1.0001 0 0 0 49.25 8.3125 C 46.061983 11.815495 43.469579 16.519271 41.6875 22 L 9 22 A 1.0001 1.0001 0 0 0 8.8125 22 A 1.0001 1.0001 0 0 0 8 23 L 8 74 A 1.0001 1.0001 0 0 0 9 75 L 49 75 L 49 82.03125 C 41.444262 82.296516 34.85109 85.504939 31.1875 90.375 A 1.0001 1.0001 0 0 0 32 92 L 68 92 A 1.0001 1.0001 0 0 0 68.8125 90.375 C 65.148912 85.504939 58.555738 82.296516 51 82.03125 L 51 74 A 1.0001 1.0001 0 0 0 50 73 L 10 73 L 10 24 L 41.09375 24 C 39.750516 28.797796 39 34.103461 39 39.71875 C 39 40.146592 39.02229 40.575731 39.03125 41 L 30.46875 46.125 A 1.0001 1.0001 0 0 0 30 47 L 30 59 A 1.0001 1.0001 0 0 0 31.375 59.90625 L 41.3125 55.96875 C 41.441426 56.407926 41.54908 56.851325 41.6875 57.28125 A 1.0001 1.0001 0 0 0 42.625 58 L 57.375 58 A 1.0001 1.0001 0 0 0 58.3125 57.28125 C 58.45092 56.851325 58.558574 56.407926 58.6875 55.96875 L 68.625 59.90625 A 1.0001 1.0001 0 0 0 70 59 L 70 47 A 1.0001 1.0001 0 0 0 69.53125 46.125 L 60.96875 41 C 60.97771 40.575731 61 40.146592 61 39.71875 C 61 34.103461 60.249484 28.797796 58.90625 24 L 90 24 L 90 73 L 57.96875 73 A 1.0001 1.0001 0 1 0 57.96875 75 L 91 75 A 1.0001 1.0001 0 0 0 92 74 L 92 23 A 1.0001 1.0001 0 0 0 91 22 L 58.3125 22 C 56.53042 16.519271 53.938016 11.815495 50.75 8.3125 A 1.0001 1.0001 0 0 0 49.84375 8 z M 50 10.71875 C 55.355051 17.20885 59 27.69671 59 39.71875 C 59 45.59475 58.095325 51.1064 56.59375 56 L 43.40625 56 C 41.904675 51.1064 41 45.59475 41 39.71875 C 41 27.69671 44.644948 17.20885 50 10.71875 z M 50 27 C 47.25042 27 45 29.25042 45 32 C 45 34.74958 47.25042 37 50 37 C 52.74958 37 55 34.74958 55 32 C 55 29.25042 52.74958 27 50 27 z M 50 29 C 51.6687 29 53 30.3313 53 32 C 53 33.6687 51.6687 35 50 35 C 48.3313 35 47 33.6687 47 32 C 47 30.3313 48.3313 29 50 29 z M 39.125 43.28125 C 39.348909 47.067537 39.9225 50.681942 40.78125 54.0625 L 32 57.53125 L 32 47.5625 L 39.125 43.28125 z M 60.875 43.28125 L 68 47.5625 L 68 57.53125 L 59.21875 54.0625 C 60.077499 50.681942 60.65109 47.067537 60.875 43.28125 z M 50 84 C 56.469388 84 62.037526 86.4246 65.625 90 L 34.375 90 C 37.962476 86.4246 43.530612 84 50 84 z "
        transform="translate(0,952.36218)"></path>
    </g>
  </g>
  <g featurekey="textGroupContainer" transform="matrix(1,0,0,1,355,9)" fill="#ffffff">
    <rect xmlns="http://www.w3.org/2000/svg" y="0" height="1" width="1" opacity="0"></rect>
    <rect xmlns="http://www.w3.org/2000/svg" y="0" x="-235" width="3" height="82"></rect>
  </g>
  <g featurekey="7UBp9i-0"
    transform="matrix(2.7948581535709223,0,0,2.7948581535709223,134.9815007660315,14.01341328065112)" fill="#ffffff">
    <path
      d="M3.92 5.720000000000001 l0.000019531 5.2 l0.04 0 c0.30666 -0.46666 0.74332 -0.84 1.31 -1.12 s1.2167 -0.42 1.95 -0.42 c1.2667 0 2.2966 0.50666 3.09 1.52 s1.19 2.32 1.19 3.92 c0 1.6133 -0.39334 2.9266 -1.18 3.94 s-1.8267 1.52 -3.12 1.52 c-1.68 0 -2.8066 -0.53334 -3.38 -1.6 l-0.04 0 l0 1.32 l-2.7 0 l0 -14.28 l2.84 0 z M3.82 14.84 c0 1 0.21998 1.8 0.65998 2.4 s1.0267 0.9 1.76 0.9 c0.72 0 1.3033 -0.29334 1.75 -0.88 s0.67 -1.3933 0.67 -2.42 c0 -1.0133 -0.21666 -1.82 -0.65 -2.42 s-1.03 -0.9 -1.79 -0.9 c-0.74666 0 -1.3333 0.30666 -1.76 0.92 s-0.64 1.4133 -0.64 2.4 z M18.32 9.38 c1.6533 0 2.96 0.50334 3.92 1.51 s1.44 2.3234 1.44 3.95 c0 1.64 -0.49 2.9566 -1.47 3.95 s-2.2766 1.49 -3.89 1.49 c-1.64 0 -2.94 -0.50334 -3.9 -1.51 s-1.44 -2.3166 -1.44 -3.93 c0 -1.6667 0.49 -2.9934 1.47 -3.98 s2.27 -1.48 3.87 -1.48 z M15.82 14.84 c0 1.0533 0.21334 1.8666 0.64 2.44 s1.0467 0.86 1.86 0.86 c0.84 0 1.47 -0.29334 1.89 -0.88 s0.63 -1.3933 0.63 -2.42 c0 -1.0667 -0.21666 -1.8867 -0.65 -2.46 s-1.0633 -0.86 -1.89 -0.86 c-0.8 0 -1.4133 0.28666 -1.84 0.86 s-0.64 1.3933 -0.64 2.46 z M35.6 5.720000000000001 l0 14.28 l-2.7 0 l0 -1.32 l-0.04 0 c-0.61334 1.0667 -1.66 1.6 -3.14 1.6 c-1.4267 0 -2.5566 -0.52 -3.39 -1.56 s-1.25 -2.3666 -1.25 -3.98 c0 -1.5733 0.42334 -2.86 1.27 -3.86 s1.95 -1.5 3.31 -1.5 c0.62666 0 1.2167 0.13 1.77 0.39 s0.98334 0.64334 1.29 1.15 l0.04 0 l0 -5.2 l2.84 0 z M27.92 14.82 c0 0.94666 0.22332 1.7367 0.66998 2.37 s1.0567 0.95 1.83 0.95 c0.81334 0 1.4233 -0.29666 1.83 -0.89 s0.61 -1.41 0.61 -2.45 s-0.21334 -1.8467 -0.64 -2.42 s-1.0333 -0.86 -1.82 -0.86 c-0.81334 0 -1.43 0.3 -1.85 0.9 s-0.63 1.4 -0.63 2.4 z M43.78 9.38 c0.24 0 0.44668 0.03334 0.62002 0.1 l0 2.64 c-0.30666 -0.06666 -0.64666 -0.1 -1.02 -0.1 c-1.8667 0 -2.8 1.1067 -2.8 3.32 l0 4.66 l-2.84 0 l0 -10.34 l2.7 0 l0 1.92 l0.04 0 c0.28 -0.66666 0.72334 -1.2 1.33 -1.6 s1.2633 -0.6 1.97 -0.6 z M48.440000000000005 5.720000000000001 l0 2.34 l-2.84 0 l0 -2.34 l2.84 0 z M48.440000000000005 9.66 l0 10.34 l-2.84 0 l0 -10.34 l2.84 0 z M55.64000000000001 9.38 c1.4 0 2.54 0.35664 3.42 1.07 s1.36 1.6633 1.44 2.85 l-2.78 0 c-0.18666 -1.1867 -0.88666 -1.78 -2.1 -1.78 c-0.74666 0 -1.3367 0.30666 -1.77 0.92 s-0.65 1.4267 -0.65 2.44 c0 0.97334 0.20666 1.76 0.62 2.36 s0.99334 0.9 1.74 0.9 c1.2933 0 2.0466 -0.7 2.26 -2.1 l2.74 0 c-0.18666 1.3733 -0.71666 2.4234 -1.59 3.15 s-2.0034 1.09 -3.39 1.09 c-1.5333 0 -2.7866 -0.49 -3.76 -1.47 s-1.46 -2.2566 -1.46 -3.83 c0 -1.7067 0.48 -3.0666 1.44 -4.08 s2.24 -1.52 3.84 -1.52 z M65.26000000000002 5.720000000000001 l0 7.66 l3.58 -3.72 l3.36 0 l-3.9 3.8 l4.34 6.54 l-3.44 0 l-2.84 -4.62 l-1.1 1.06 l0 3.56 l-2.84 0 l0 -14.28 l2.84 0 z">
    </path>
  </g>
</svg>
