<svg xmlns="http://www.w3.org/2000/svg" width="200" height="160.693">
  <defs>
    <linearGradient id="a">
      <stop offset="0" stop-color="#b88746" />
      <stop offset="1" stop-color="#fdf5a6" />
    </linearGradient>
  </defs>
  <path xmlns="http://www.w3.org/2000/svg" fill="url(#a)"
    d="M49.844 8a1 1 0 0 0-.594.313c-3.188 3.502-5.78 8.206-7.563 13.687H9a1 1 0 0 0-.188 0A1 1 0 0 0 8 23v51a1 1 0 0 0 1 1h40v7.031c-7.556.266-14.149 3.474-17.813 8.344A1 1 0 0 0 32 92h36a1 1 0 0 0 .813-1.625c-3.664-4.87-10.257-8.078-17.813-8.344V74a1 1 0 0 0-1-1H10V24h31.094C39.75 28.798 39 34.103 39 39.719c0 .428.022.857.031 1.281l-8.562 5.125A1 1 0 0 0 30 47v12a1 1 0 0 0 1.375.906l9.938-3.937c.128.439.236.882.374 1.312a1 1 0 0 0 .938.719h14.75a1 1 0 0 0 .938-.719c.138-.43.246-.873.374-1.312l9.938 3.937A1 1 0 0 0 70 59V47a1 1 0 0 0-.469-.875L60.97 41c.009-.424.031-.853.031-1.281 0-5.616-.75-10.921-2.094-15.719H90v49H57.969a1 1 0 1 0 0 2H91a1 1 0 0 0 1-1V23a1 1 0 0 0-1-1H58.312c-1.782-5.48-4.374-10.185-7.562-13.688A1 1 0 0 0 49.844 8zM50 10.719c5.355 6.49 9 16.978 9 29 0 5.876-.905 11.387-2.406 16.281H43.406C41.905 51.106 41 45.595 41 39.719c0-12.022 3.645-22.51 9-29zM50 27c-2.75 0-5 2.25-5 5s2.25 5 5 5 5-2.25 5-5-2.25-5-5-5zm0 2c1.669 0 3 1.331 3 3s-1.331 3-3 3-3-1.331-3-3 1.331-3 3-3zM39.125 43.281c.224 3.787.797 7.4 1.656 10.782L32 57.53v-9.968l7.125-4.282zm21.75 0L68 47.563v9.968l-8.781-3.468a57.658 57.658 0 0 0 1.656-10.782zM50 84c6.47 0 12.038 2.425 15.625 6h-31.25c3.587-3.575 9.156-6 15.625-6z"
    transform="translate(40.476 -9.507) scale(1.19047)" />
  <path fill="#fff"
    d="M7.937 120v14.533h.112c.857-1.304 2.078-2.347 3.661-3.13s3.401-1.174 5.45-1.174c3.54 0 6.42 1.416 8.637 4.248s3.325 6.484 3.325 10.956c0 4.51-1.099 8.18-3.298 11.012s-5.105 4.248-8.72 4.248c-4.695 0-7.844-1.49-9.446-4.472h-.112v3.69H0V120h7.937zm-.28 25.49c0 2.794.616 5.03 1.845 6.707s2.87 2.515 4.92 2.515c2.012 0 3.642-.82 4.89-2.46s1.873-3.893 1.873-6.763c0-2.832-.606-5.087-1.817-6.763s-2.878-2.516-5.003-2.516c-2.086 0-3.726.857-4.918 2.571s-1.79 3.95-1.79 6.708zm40.526-15.26c4.621 0 8.273 1.406 10.956 4.22s4.025 6.493 4.025 11.04c0 4.583-1.37 8.262-4.109 11.039s-6.362 4.164-10.872 4.164c-4.583 0-8.217-1.407-10.9-4.22s-4.024-6.475-4.024-10.984c0-4.658 1.37-8.366 4.108-11.123s6.345-4.137 10.816-4.137zm-6.987 15.26c0 2.943.596 5.216 1.789 6.819s2.925 2.403 5.198 2.403c2.348 0 4.109-.82 5.283-2.46s1.76-3.893 1.76-6.763c0-2.981-.605-5.273-1.816-6.875s-2.972-2.404-5.283-2.404c-2.235 0-3.95.801-5.142 2.404s-1.789 3.894-1.789 6.875zM96.478 120v39.91h-7.546v-3.689h-.111c-1.715 2.982-4.64 4.472-8.776 4.472-3.988 0-7.146-1.453-9.475-4.36s-3.493-6.614-3.493-11.123c0-4.398 1.183-7.994 3.549-10.789s5.45-4.192 9.251-4.192c1.751 0 3.4.364 4.947 1.09s2.748 1.798 3.605 3.214h.112V120h7.937zm-21.464 25.433c0 2.646.624 4.854 1.872 6.624s2.954 2.655 5.115 2.655c2.273 0 3.978-.829 5.115-2.487s1.704-3.941 1.704-6.848-.596-5.161-1.788-6.763-2.888-2.404-5.087-2.404c-2.273 0-3.997.839-5.17 2.516s-1.761 3.912-1.761 6.707zm44.326-15.204c.671 0 1.249.093 1.733.28v7.378a13.46 13.46 0 0 0-2.85-.28c-5.218 0-7.826 3.094-7.826 9.28v13.024h-7.937v-28.9h7.546v5.367h.111c.783-1.863 2.022-3.354 3.718-4.472s3.53-1.677 5.505-1.677zM132.364 120v6.54h-7.937V120h7.937zm0 11.012v28.899h-7.937v-28.9h7.937zm20.123-.783c3.913 0 7.1.997 9.559 2.99s3.8 4.65 4.024 7.966h-7.77c-.521-3.317-2.477-4.975-5.868-4.975-2.087 0-3.736.857-4.947 2.571s-1.817 3.988-1.817 6.82c0 2.72.578 4.919 1.733 6.596s2.776 2.515 4.863 2.515c3.614 0 5.72-1.956 6.316-5.87h7.658c-.522 3.84-2.003 6.774-4.444 8.805s-5.599 3.046-9.474 3.046c-4.286 0-7.788-1.37-10.509-4.108s-4.08-6.307-4.08-10.705c0-4.77 1.341-8.57 4.024-11.403s6.26-4.248 10.732-4.248zM179.374 120v21.409l10.006-10.397h9.39l-10.9 10.62L200 159.911h-9.614l-7.938-12.913-3.074 2.963v9.95h-7.937V120h7.937z" />
</svg>
